<svg xmlns="http://www.w3.org/2000/svg" width="1480" height="900" viewBox="0 0 1480 900" font-family="'Apple SD Gothic Neo','Malgun Gothic','Noto Sans KR','Segoe UI',system-ui,sans-serif"><defs><marker id="mk_push" markerWidth="9" markerHeight="9" refX="7" refY="4.5" orient="auto"><path d="M0,0 L9,4.5 L0,9 L2.6,4.5 Z" fill="#3556A4"/></marker><marker id="mk_pull" markerWidth="9" markerHeight="9" refX="7" refY="4.5" orient="auto"><path d="M0,0 L9,4.5 L0,9 L2.6,4.5 Z" fill="#0E8F82"/></marker><marker id="mk_api" markerWidth="9" markerHeight="9" refX="7" refY="4.5" orient="auto"><path d="M0,0 L9,4.5 L0,9 L2.6,4.5 Z" fill="#98A2B3"/></marker><marker id="mk_kakao" markerWidth="9" markerHeight="9" refX="7" refY="4.5" orient="auto"><path d="M0,0 L9,4.5 L0,9 L2.6,4.5 Z" fill="#E0C200"/></marker><marker id="mk_green" markerWidth="9" markerHeight="9" refX="7" refY="4.5" orient="auto"><path d="M0,0 L9,4.5 L0,9 L2.6,4.5 Z" fill="#0E9A6E"/></marker><filter id="nsh" x="-20%" y="-20%" width="140%" height="150%"><feDropShadow dx="0" dy="2" stdDeviation="4" flood-color="#1B2130" flood-opacity="0.10"/></filter></defs><rect x="0" y="0" width="1480" height="900" rx="0" ry="0" fill="#F5F7FA" stroke="none" stroke-width="1.5" opacity="1"/><text x="40" y="50" font-family="'Apple SD Gothic Neo','Malgun Gothic','Noto Sans KR','Segoe UI',system-ui,sans-serif" font-size="27" fill="#1B2130" font-weight="800" text-anchor="start" opacity="1">종로구 집회 알리미 — 시스템 아키텍처</text><text x="40" y="76" font-family="'Apple SD Gothic Neo','Malgun Gothic','Noto Sans KR','Segoe UI',system-ui,sans-serif" font-size="13.5" fill="#5B6472" font-weight="500" text-anchor="start" opacity="1">FastAPI 기반 카카오톡 시민 알림 서비스</text><text x="40" y="94" font-family="'Apple SD Gothic Neo','Malgun Gothic','Noto Sans KR','Segoe UI',system-ui,sans-serif" font-size="12" fill="#9AA3B2" font-weight="400" text-anchor="start" opacity="1">매일 아침 공공 데이터를 수집·정제해 사용자 경로/관심장소에 영향이 있으면 알림톡으로 선제 발송</text><rect x="300" y="116" width="862" height="600" rx="18" ry="18" fill="#FBFCFE" stroke="#C3CCDA" stroke-width="1.8" opacity="1"/><rect x="300" y="116" width="300" height="34" rx="0" ry="0" fill="none" stroke="none" stroke-width="1.5" opacity="1"/><rect x="300.9" y="116.9" width="262" height="30" rx="12" ry="12" fill="#EEF2FA" stroke="none" stroke-width="1.5" opacity="1"/><text x="316" y="137" font-family="'JetBrains Mono','SF Mono',ui-monospace,Consolas,monospace" font-size="13" fill="#3556A4" font-weight="800" text-anchor="start" opacity="1">FastAPI Application</text><text x="476" y="137" font-family="'Apple SD Gothic Neo','Malgun Gothic','Noto Sans KR','Segoe UI',system-ui,sans-serif" font-size="11" fill="#5B6472" font-weight="500" text-anchor="start" opacity="1">Oracle Cloud VM · nginx + uvicorn</text><rect x="40" y="150" width="236" height="566" rx="16" ry="16" fill="#EEF2F8" stroke="#B7C4D8" stroke-width="1.4" stroke-dasharray="7 6" opacity="1"/><text x="56" y="175" font-family="'JetBrains Mono','SF Mono',ui-monospace,Consolas,monospace" font-size="12.5" fill="#1B2130" font-weight="700" text-anchor="start" letter-spacing="0.5" opacity="1">외부 소스 · SOURCES</text><g filter="url(#nsh)"><rect x="54" y="200" width="208" height="76" rx="12" ry="12" fill="#FFFFFF" stroke="#D4DAE3" stroke-width="1.4" opacity="1"/></g><rect x="66" y="220.0" width="36" height="36" rx="9" ry="9" fill="#E3EAF4" stroke="none" stroke-width="1.5" opacity="1"/><g fill="none" stroke="#375A9E" stroke-width="1.7" stroke-linecap="round" stroke-linejoin="round"><path d="M84.0 229.0 L92.0 232.5 V239.0 C92.0 244.0 88.0 246.5 84.0 248.0 C80.0 246.5 76.0 244.0 76.0 239.0 V232.5 Z"/><path d="M80.5 238.0 l2.5 2.5 l5 -5"/></g><text x="114" y="237.0" font-family="'Apple SD Gothic Neo','Malgun Gothic','Noto Sans KR','Segoe UI',system-ui,sans-serif" font-size="14" fill="#1B2130" font-weight="700" text-anchor="start" opacity="1">서울경찰청 SMPA</text><text x="114" y="254.0" font-family="'Apple SD Gothic Neo','Malgun Gothic','Noto Sans KR','Segoe UI',system-ui,sans-serif" font-size="11.3" fill="#5B6472" font-weight="400" text-anchor="start" opacity="1">집회 신고 목록·PDF</text><g filter="url(#nsh)"><rect x="54" y="296" width="208" height="76" rx="12" ry="12" fill="#FFFFFF" stroke="#D4DAE3" stroke-width="1.4" opacity="1"/></g><rect x="66" y="316.0" width="36" height="36" rx="9" ry="9" fill="#E3EAF4" stroke="none" stroke-width="1.5" opacity="1"/><g fill="none" stroke="#375A9E" stroke-width="1.7" stroke-linecap="round" stroke-linejoin="round"><rect x="76.0" y="326.0" width="16" height="13" rx="3"/><line x1="76.0" y1="332.0" x2="92.0" y2="332.0"/><circle cx="80.0" cy="341.0" r="1.6"/><circle cx="88.0" cy="341.0" r="1.6"/></g><text x="114" y="333.0" font-family="'Apple SD Gothic Neo','Malgun Gothic','Noto Sans KR','Segoe UI',system-ui,sans-serif" font-size="14" fill="#1B2130" font-weight="700" text-anchor="start" opacity="1">서울시 TOPIS</text><text x="114" y="350.0" font-family="'Apple SD Gothic Neo','Malgun Gothic','Noto Sans KR','Segoe UI',system-ui,sans-serif" font-size="11.3" fill="#5B6472" font-weight="400" text-anchor="start" opacity="1">버스 노선 통제 공지 (HWP)</text><g filter="url(#nsh)"><rect x="54" y="392" width="208" height="76" rx="12" ry="12" fill="#FFFFFF" stroke="#D4DAE3" stroke-width="1.4" opacity="1"/></g><rect x="66" y="412.0" width="36" height="36" rx="9" ry="9" fill="#E3EAF4" stroke="none" stroke-width="1.5" opacity="1"/><g fill="none" stroke="#8A5A2B" stroke-width="1.7" stroke-linecap="round" stroke-linejoin="round"><path d="M83.0 421.0 L85.5 428.0 L92.0 430.0 L85.5 432.0 L83.0 439.0 L80.5 432.0 L75.0 430.0 L80.5 428.0 Z"/><path d="M90.0 422.0 l1 3 l3 1 l-3 1 l-1 3 l-1 -3 l-3 -1 l3 -1 Z"/></g><text x="114" y="429.0" font-family="'Apple SD Gothic Neo','Malgun Gothic','Noto Sans KR','Segoe UI',system-ui,sans-serif" font-size="14" fill="#1B2130" font-weight="700" text-anchor="start" opacity="1">WORKS AI · Gemini</text><text x="114" y="446.0" font-family="'Apple SD Gothic Neo','Malgun Gothic','Noto Sans KR','Segoe UI',system-ui,sans-serif" font-size="11.3" fill="#5B6472" font-weight="400" text-anchor="start" opacity="1">공지 → 구조화 JSON 추출</text><g filter="url(#nsh)"><rect x="54" y="488" width="208" height="76" rx="12" ry="12" fill="#FFFFFF" stroke="#D4DAE3" stroke-width="1.4" opacity="1"/></g><rect x="66" y="508.0" width="36" height="36" rx="9" ry="9" fill="#E3EAF4" stroke="none" stroke-width="1.5" opacity="1"/><g fill="none" stroke="#B07100" stroke-width="1.7" stroke-linecap="round" stroke-linejoin="round"><path d="M84.0 535.0 C78.0 527.0 78.0 518.0 84.0 518.0 C90.0 518.0 90.0 527.0 84.0 535.0 Z"/><circle cx="84.0" cy="523.0" r="2.4"/></g><text x="114" y="525.0" font-family="'Apple SD Gothic Neo','Malgun Gothic','Noto Sans KR','Segoe UI',system-ui,sans-serif" font-size="14" fill="#1B2130" font-weight="700" text-anchor="start" opacity="1">Kakao 좌표 API</text><text x="114" y="542.0" font-family="'Apple SD Gothic Neo','Malgun Gothic','Noto Sans KR','Segoe UI',system-ui,sans-serif" font-size="11.3" fill="#5B6472" font-weight="400" text-anchor="start" opacity="1">주소 → 위·경도 지오코딩</text><g filter="url(#nsh)"><rect x="54" y="584" width="208" height="76" rx="12" ry="12" fill="#FFFFFF" stroke="#D4DAE3" stroke-width="1.4" opacity="1"/></g><rect x="66" y="604.0" width="36" height="36" rx="9" ry="9" fill="#E3EAF4" stroke="none" stroke-width="1.5" opacity="1"/><g fill="none" stroke="#2E7D66" stroke-width="1.7" stroke-linecap="round" stroke-linejoin="round"><circle cx="78.0" cy="628.0" r="2.3"/><circle cx="90.0" cy="616.0" r="2.3"/><path d="M78.0 625.5 C78.0 619.0 90.0 621.0 90.0 618.5" stroke-dasharray="2.5 2.5"/></g><text x="114" y="621.0" font-family="'Apple SD Gothic Neo','Malgun Gothic','Noto Sans KR','Segoe UI',system-ui,sans-serif" font-size="14" fill="#1B2130" font-weight="700" text-anchor="start" opacity="1">TMAP · 버스 API</text><text x="114" y="638.0" font-family="'Apple SD Gothic Neo','Malgun Gothic','Noto Sans KR','Segoe UI',system-ui,sans-serif" font-size="11.3" fill="#5B6472" font-weight="400" text-anchor="start" opacity="1">경로 좌표 · 노선 조회</text><rect x="316" y="158" width="260" height="320" rx="16" ry="16" fill="#EDF0FB" stroke="#B9C2E8" stroke-width="1.4" stroke-dasharray="7 6" opacity="1"/><circle cx="342" cy="178" r="12.5" fill="#3556A4" stroke="#fff" stroke-width="2"/><text x="342" y="182.5" font-family="'JetBrains Mono','SF Mono',ui-monospace,Consolas,monospace" font-size="12.5" fill="#fff" font-weight="800" text-anchor="middle" opacity="1">1</text><text x="358" y="183" font-family="'JetBrains Mono','SF Mono',ui-monospace,Consolas,monospace" font-size="12.5" fill="#1B2130" font-weight="700" text-anchor="start" letter-spacing="0.5" opacity="1">수집 · INGEST</text><g filter="url(#nsh)"><rect x="330" y="196" width="232" height="62" rx="12" ry="12" fill="#FFFFFF" stroke="#D4DAE3" stroke-width="1.4" opacity="1"/></g><rect x="342" y="209.0" width="36" height="36" rx="9" ry="9" fill="#E1E7F8" stroke="none" stroke-width="1.5" opacity="1"/><g fill="none" stroke="#3556A4" stroke-width="1.7" stroke-linecap="round" stroke-linejoin="round"><circle cx="360.0" cy="227.0" r="8.5"/><path d="M360.0 222.5 V227.0 L363.5 229.5"/></g><text x="390" y="226.0" font-family="'Apple SD Gothic Neo','Malgun Gothic','Noto Sans KR','Segoe UI',system-ui,sans-serif" font-size="14" fill="#1B2130" font-weight="700" text-anchor="start" opacity="1">APScheduler</text><text x="390" y="243.0" font-family="'Apple SD Gothic Neo','Malgun Gothic','Noto Sans KR','Segoe UI',system-ui,sans-serif" font-size="11.3" fill="#5B6472" font-weight="400" text-anchor="start" opacity="1">07:50 크롤링 · 08:00 체크</text><g filter="url(#nsh)"><rect x="330" y="292" width="232" height="74" rx="12" ry="12" fill="#FFFFFF" stroke="#D4DAE3" stroke-width="1.4" opacity="1"/></g><rect x="342" y="311.0" width="36" height="36" rx="9" ry="9" fill="#E1E7F8" stroke="none" stroke-width="1.5" opacity="1"/><g fill="none" stroke="#3556A4" stroke-width="1.7" stroke-linecap="round" stroke-linejoin="round"><path d="M360.0 321.0 V332.0"/><path d="M356.0 328.0 L360.0 332.5 L364.0 328.0"/><path d="M353.0 335.0 V337.0 H367.0 V335.0"/></g><text x="390" y="321.0" font-family="'Apple SD Gothic Neo','Malgun Gothic','Noto Sans KR','Segoe UI',system-ui,sans-serif" font-size="14" fill="#1B2130" font-weight="700" text-anchor="start" opacity="1">CrawlingService</text><text x="390" y="338.0" font-family="'Apple SD Gothic Neo','Malgun Gothic','Noto Sans KR','Segoe UI',system-ui,sans-serif" font-size="11.3" fill="#5B6472" font-weight="400" text-anchor="start" opacity="1">SMPA+SPATIC 통합 동기화</text><text x="390" y="353.0" font-family="'Apple SD Gothic Neo','Malgun Gothic','Noto Sans KR','Segoe UI',system-ui,sans-serif" font-size="11.3" fill="#5B6472" font-weight="400" text-anchor="start" opacity="1">해시 중복제거 · Playwright</text><g filter="url(#nsh)"><rect x="330" y="392" width="232" height="74" rx="12" ry="12" fill="#FFFFFF" stroke="#D4DAE3" stroke-width="1.4" opacity="1"/></g><rect x="342" y="411.0" width="36" height="36" rx="9" ry="9" fill="#E1E7F8" stroke="none" stroke-width="1.5" opacity="1"/><g fill="none" stroke="#3556A4" stroke-width="1.7" stroke-linecap="round" stroke-linejoin="round"><path d="M360.0 419.5 L368.0 423.5 L360.0 427.5 L352.0 423.5 Z"/><path d="M360.0 425.0 L368.0 429.0 L360.0 433.0 L352.0 429.0 Z"/><path d="M360.0 430.5 L368.0 434.5 L360.0 438.5 L352.0 434.5 Z"/></g><text x="390" y="421.0" font-family="'Apple SD Gothic Neo','Malgun Gothic','Noto Sans KR','Segoe UI',system-ui,sans-serif" font-size="14" fill="#1B2130" font-weight="700" text-anchor="start" opacity="1">BusNoticeService</text><text x="390" y="438.0" font-family="'Apple SD Gothic Neo','Malgun Gothic','Noto Sans KR','Segoe UI',system-ui,sans-serif" font-size="11.3" fill="#5B6472" font-weight="400" text-anchor="start" opacity="1">restricted_bus · 통제 판정</text><text x="390" y="453.0" font-family="'Apple SD Gothic Neo','Malgun Gothic','Noto Sans KR','Segoe UI',system-ui,sans-serif" font-size="11.3" fill="#5B6472" font-weight="400" text-anchor="start" opacity="1">hwpx2pdf · position_checker</text><rect x="600" y="158" width="258" height="320" rx="16" ry="16" fill="#F3F1FA" stroke="#CFC6E6" stroke-width="1.4" stroke-dasharray="7 6" opacity="1"/><text x="616" y="183" font-family="'JetBrains Mono','SF Mono',ui-monospace,Consolas,monospace" font-size="12.5" fill="#1B2130" font-weight="700" text-anchor="start" letter-spacing="0.5" opacity="1">핵심 로직 · CORE</text><g filter="url(#nsh)"><rect x="614" y="196" width="230" height="62" rx="12" ry="12" fill="#FFFFFF" stroke="#D4DAE3" stroke-width="1.4" opacity="1"/></g><rect x="626" y="209.0" width="36" height="36" rx="9" ry="9" fill="#EDE8F8" stroke="none" stroke-width="1.5" opacity="1"/><g fill="none" stroke="#6A4E9C" stroke-width="1.7" stroke-linecap="round" stroke-linejoin="round"><circle cx="644.0" cy="227.0" r="8.5"/><circle cx="644.0" cy="227.0" r="4"/><circle cx="644.0" cy="227.0" r="0.6"/></g><text x="674" y="226.0" font-family="'Apple SD Gothic Neo','Malgun Gothic','Noto Sans KR','Segoe UI',system-ui,sans-serif" font-size="14" fill="#1B2130" font-weight="700" text-anchor="start" opacity="1">EventService</text><text x="674" y="243.0" font-family="'Apple SD Gothic Neo','Malgun Gothic','Noto Sans KR','Segoe UI',system-ui,sans-serif" font-size="11.3" fill="#5B6472" font-weight="400" text-anchor="start" opacity="1">사용자 경로상 집회 탐지</text><g filter="url(#nsh)"><rect x="614" y="268" width="230" height="62" rx="12" ry="12" fill="#FFFFFF" stroke="#D4DAE3" stroke-width="1.4" opacity="1"/></g><rect x="626" y="281.0" width="36" height="36" rx="9" ry="9" fill="#EDE8F8" stroke="none" stroke-width="1.5" opacity="1"/><g fill="none" stroke="#6A4E9C" stroke-width="1.7" stroke-linecap="round" stroke-linejoin="round"><rect x="636.0" y="291.0" width="16" height="16" rx="3" stroke-dasharray="3 2.5"/><circle cx="644.0" cy="299.0" r="2.4"/></g><text x="674" y="298.0" font-family="'Apple SD Gothic Neo','Malgun Gothic','Noto Sans KR','Segoe UI',system-ui,sans-serif" font-size="14" fill="#1B2130" font-weight="700" text-anchor="start" opacity="1">ZoneAlarmService</text><text x="674" y="315.0" font-family="'Apple SD Gothic Neo','Malgun Gothic','Noto Sans KR','Segoe UI',system-ui,sans-serif" font-size="11.3" fill="#5B6472" font-weight="400" text-anchor="start" opacity="1">관심구역(favorite_zone) 알람</text><g filter="url(#nsh)"><rect x="614" y="340" width="230" height="62" rx="12" ry="12" fill="#FFFFFF" stroke="#D4DAE3" stroke-width="1.4" opacity="1"/></g><rect x="626" y="353.0" width="36" height="36" rx="9" ry="9" fill="#EDE8F8" stroke="none" stroke-width="1.5" opacity="1"/><g fill="none" stroke="#6A4E9C" stroke-width="1.7" stroke-linecap="round" stroke-linejoin="round"><circle cx="644.0" cy="367.0" r="4"/><path d="M637.0 380.0 C637.0 374.0 651.0 374.0 651.0 380.0"/></g><text x="674" y="370.0" font-family="'Apple SD Gothic Neo','Malgun Gothic','Noto Sans KR','Segoe UI',system-ui,sans-serif" font-size="14" fill="#1B2130" font-weight="700" text-anchor="start" opacity="1">UserService</text><text x="674" y="387.0" font-family="'Apple SD Gothic Neo','Malgun Gothic','Noto Sans KR','Segoe UI',system-ui,sans-serif" font-size="11.3" fill="#5B6472" font-weight="400" text-anchor="start" opacity="1">프로필·경로·발송상태 관리</text><rect x="876" y="158" width="272" height="320" rx="16" ry="16" fill="#F4F6F9" stroke="#C4CDDA" stroke-width="1.4" stroke-dasharray="7 6" opacity="1"/><text x="892" y="183" font-family="'JetBrains Mono','SF Mono',ui-monospace,Consolas,monospace" font-size="12.5" fill="#1B2130" font-weight="700" text-anchor="start" letter-spacing="0.5" opacity="1">전달 · 게이트웨이</text><g filter="url(#nsh)"><rect x="890" y="196" width="244" height="74" rx="12" ry="12" fill="#FFFFFF" stroke="#D4DAE3" stroke-width="1.4" opacity="1"/></g><rect x="902" y="215.0" width="36" height="36" rx="9" ry="9" fill="#FBE7DF" stroke="none" stroke-width="1.5" opacity="1"/><g fill="none" stroke="#B24A2E" stroke-width="1.7" stroke-linecap="round" stroke-linejoin="round"><path d="M914.0 236.0 C914.0 226.0 926.0 226.0 926.0 236.0 Z"/><line x1="912.0" y1="236.0" x2="928.0" y2="236.0"/><path d="M918.0 239.0 a2 2 0 0 0 4 0"/></g><text x="950" y="225.0" font-family="'Apple SD Gothic Neo','Malgun Gothic','Noto Sans KR','Segoe UI',system-ui,sans-serif" font-size="14" fill="#1B2130" font-weight="700" text-anchor="start" opacity="1">NotificationService</text><text x="950" y="242.0" font-family="'Apple SD Gothic Neo','Malgun Gothic','Noto Sans KR','Segoe UI',system-ui,sans-serif" font-size="11.3" fill="#5B6472" font-weight="400" text-anchor="start" opacity="1">Kakao Event API 발송</text><text x="950" y="257.0" font-family="'Apple SD Gothic Neo','Malgun Gothic','Noto Sans KR','Segoe UI',system-ui,sans-serif" font-size="11.3" fill="#5B6472" font-weight="400" text-anchor="start" opacity="1">100명/배치 · httpx</text><g filter="url(#nsh)"><rect x="890" y="300" width="244" height="130" rx="12" ry="12" fill="#FFFFFF" stroke="#D4DAE3" stroke-width="1.4" opacity="1"/></g><rect x="902" y="314" width="34" height="34" rx="9" ry="9" fill="#E6EAF1" stroke="none" stroke-width="1.5" opacity="1"/><g fill="none" stroke="#40506B" stroke-width="1.7" stroke-linecap="round" stroke-linejoin="round"><path d="M913 329 h12 v3 a6 6 0 0 1 -12 0 Z"/><line x1="916" y1="329" x2="916" y2="324"/><line x1="922" y1="329" x2="922" y2="324"/><line x1="919" y1="336" x2="919" y2="339"/></g><text x="948" y="330" font-family="'Apple SD Gothic Neo','Malgun Gothic','Noto Sans KR','Segoe UI',system-ui,sans-serif" font-size="14" fill="#1B2130" font-weight="700" text-anchor="start" opacity="1">FastAPI Routers</text><text x="948" y="346" font-family="'Apple SD Gothic Neo','Malgun Gothic','Noto Sans KR','Segoe UI',system-ui,sans-serif" font-size="11.3" fill="#5B6472" font-weight="400" text-anchor="start" opacity="1">카카오 스킬 API 게이트웨이</text><rect x="904" y="362" width="216" height="19" rx="6" ry="6" fill="#F4F6F9" stroke="#D4DAE3" stroke-width="1" opacity="1"/><text x="914" y="375" font-family="'JetBrains Mono','SF Mono',ui-monospace,Consolas,monospace" font-size="10.6" fill="#5B6472" font-weight="400" text-anchor="start" opacity="1">kakao_skills · 스킬블록</text><rect x="904" y="384" width="216" height="19" rx="6" ry="6" fill="#F4F6F9" stroke="#D4DAE3" stroke-width="1" opacity="1"/><text x="914" y="397" font-family="'JetBrains Mono','SF Mono',ui-monospace,Consolas,monospace" font-size="10.6" fill="#5B6472" font-weight="400" text-anchor="start" opacity="1">/bus · 통제조회 webhook</text><rect x="904" y="406" width="216" height="19" rx="6" ry="6" fill="#F4F6F9" stroke="#D4DAE3" stroke-width="1" opacity="1"/><text x="914" y="419" font-family="'JetBrains Mono','SF Mono',ui-monospace,Consolas,monospace" font-size="10.6" fill="#5B6472" font-weight="400" text-anchor="start" opacity="1">/kakao · /admin · /users</text><g filter="url(#nsh)"><rect x="360" y="566" width="496" height="128" rx="14" ry="14" fill="#EAF6F0" stroke="#0E9A6E" stroke-width="1.6" opacity="1"/></g><rect x="376" y="584" width="40" height="40" rx="10" ry="10" fill="#D3EFE2" stroke="none" stroke-width="1.5" opacity="1"/><g fill="none" stroke="#0E9A6E" stroke-width="1.7" stroke-linecap="round" stroke-linejoin="round"><ellipse cx="396" cy="598" rx="8" ry="3.2"/><path d="M388 598 V610 C388 612 404 612 404 610 V598"/><path d="M388 604 C388 606 404 606 404 604"/></g><text x="430" y="600" font-family="'Apple SD Gothic Neo','Malgun Gothic','Noto Sans KR','Segoe UI',system-ui,sans-serif" font-size="15.5" fill="#1B2130" font-weight="800" text-anchor="start" opacity="1">SQLite Database</text><text x="430" y="618" font-family="'Apple SD Gothic Neo','Malgun Gothic','Noto Sans KR','Segoe UI',system-ui,sans-serif" font-size="11.3" fill="#5B6472" font-weight="400" text-anchor="start" opacity="1">Router–Service–Repository · bootstrap 스키마</text><rect x="380" y="640" width="148" height="40" rx="9" ry="9" fill="#FFFFFF" stroke="#B7E0CD" stroke-width="1.3" opacity="1"/><text x="392" y="658" font-family="'JetBrains Mono','SF Mono',ui-monospace,Consolas,monospace" font-size="12" fill="#0E9A6E" font-weight="800" text-anchor="start" opacity="1">users</text><text x="392" y="672" font-family="'Apple SD Gothic Neo','Malgun Gothic','Noto Sans KR','Segoe UI',system-ui,sans-serif" font-size="9.4" fill="#5B6472" font-weight="400" text-anchor="start" opacity="1">사용자 · 경로 · 관심구역</text><rect x="536" y="640" width="148" height="40" rx="9" ry="9" fill="#FFFFFF" stroke="#B7E0CD" stroke-width="1.3" opacity="1"/><text x="548" y="658" font-family="'JetBrains Mono','SF Mono',ui-monospace,Consolas,monospace" font-size="12" fill="#0E9A6E" font-weight="800" text-anchor="start" opacity="1">events</text><text x="548" y="672" font-family="'Apple SD Gothic Neo','Malgun Gothic','Noto Sans KR','Segoe UI',system-ui,sans-serif" font-size="9.4" fill="#5B6472" font-weight="400" text-anchor="start" opacity="1">수집된 집회 (severity 1–3)</text><rect x="692" y="640" width="148" height="40" rx="9" ry="9" fill="#FFFFFF" stroke="#B7E0CD" stroke-width="1.3" opacity="1"/><text x="704" y="658" font-family="'JetBrains Mono','SF Mono',ui-monospace,Consolas,monospace" font-size="12" fill="#0E9A6E" font-weight="800" text-anchor="start" opacity="1">alarm_tasks</text><text x="704" y="672" font-family="'Apple SD Gothic Neo','Malgun Gothic','Noto Sans KR','Segoe UI',system-ui,sans-serif" font-size="9.4" fill="#5B6472" font-weight="400" text-anchor="start" opacity="1">발송 작업 추적 · FK→events</text><rect x="1186" y="150" width="258" height="470" rx="16" ry="16" fill="#FFFBDD" stroke="#EAD64A" stroke-width="1.4" stroke-dasharray="7 6" opacity="1"/><text x="1202" y="175" font-family="'JetBrains Mono','SF Mono',ui-monospace,Consolas,monospace" font-size="12.5" fill="#1B2130" font-weight="700" text-anchor="start" letter-spacing="0.5" opacity="1">카카오 채널</text><g filter="url(#nsh)"><rect x="1200" y="196" width="230" height="62" rx="12" ry="12" fill="#FFFFFF" stroke="#D4DAE3" stroke-width="1.4" opacity="1"/></g><rect x="1212" y="209.0" width="36" height="36" rx="9" ry="9" fill="#FEE500" stroke="none" stroke-width="1.5" opacity="1"/><g fill="none" stroke="#1A1700" stroke-width="1.7" stroke-linecap="round" stroke-linejoin="round"><path d="M1221.0 227.0 L1239.0 219.0 L1232.0 236.0 L1229.0 228.0 Z"/><path d="M1229.0 228.0 L1239.0 219.0"/></g><text x="1260" y="226.0" font-family="'Apple SD Gothic Neo','Malgun Gothic','Noto Sans KR','Segoe UI',system-ui,sans-serif" font-size="14" fill="#1B2130" font-weight="700" text-anchor="start" opacity="1">Kakao Event API</text><text x="1260" y="243.0" font-family="'Apple SD Gothic Neo','Malgun Gothic','Noto Sans KR','Segoe UI',system-ui,sans-serif" font-size="11.3" fill="#5B6472" font-weight="400" text-anchor="start" opacity="1">알림톡 발송 엔드포인트</text><g filter="url(#nsh)"><rect x="1200" y="288" width="230" height="62" rx="12" ry="12" fill="#FFFFFF" stroke="#D4DAE3" stroke-width="1.4" opacity="1"/></g><rect x="1212" y="301.0" width="36" height="36" rx="9" ry="9" fill="#FEE500" stroke="none" stroke-width="1.5" opacity="1"/><g fill="none" stroke="#1A1700" stroke-width="1.7" stroke-linecap="round" stroke-linejoin="round"><path d="M1222.0 313.0 h16 a2 2 0 0 1 2 2 v6 a2 2 0 0 1 -2 2 h-9 l-4 3 v-3 h-3 a2 2 0 0 1 -2 -2 v-6 a2 2 0 0 1 2 -2 Z"/></g><text x="1260" y="318.0" font-family="'Apple SD Gothic Neo','Malgun Gothic','Noto Sans KR','Segoe UI',system-ui,sans-serif" font-size="14" fill="#1B2130" font-weight="700" text-anchor="start" opacity="1">KakaoTalk 채널</text><text x="1260" y="335.0" font-family="'Apple SD Gothic Neo','Malgun Gothic','Noto Sans KR','Segoe UI',system-ui,sans-serif" font-size="11.3" fill="#5B6472" font-weight="400" text-anchor="start" opacity="1">@종로구 집회 알리미</text><g filter="url(#nsh)"><rect x="1200" y="402" width="230" height="96" rx="14" ry="14" fill="#FFFDF0" stroke="#E0C200" stroke-width="2" opacity="1"/></g><rect x="1216" y="432" width="40" height="40" rx="11" ry="11" fill="#FEE500" stroke="none" stroke-width="1.5" opacity="1"/><g fill="none" stroke="#1A1700" stroke-width="1.7" stroke-linecap="round" stroke-linejoin="round"><circle cx="1236" cy="448" r="4"/><path d="M1229 461 C1229 455 1243 455 1243 461"/></g><text x="1270" y="446" font-family="'Apple SD Gothic Neo','Malgun Gothic','Noto Sans KR','Segoe UI',system-ui,sans-serif" font-size="15" fill="#1B2130" font-weight="800" text-anchor="start" opacity="1">시민 (사용자)</text><text x="1270" y="465" font-family="'Apple SD Gothic Neo','Malgun Gothic','Noto Sans KR','Segoe UI',system-ui,sans-serif" font-size="11" fill="#5B6472" font-weight="400" text-anchor="start" opacity="1">별도 앱 설치 없음</text><text x="1270" y="481" font-family="'Apple SD Gothic Neo','Malgun Gothic','Noto Sans KR','Segoe UI',system-ui,sans-serif" font-size="10" fill="#9AA3B2" font-weight="400" text-anchor="start" opacity="1">대화 등록(PULL) + 알림 수신(PUSH)</text><polyline points="262,238.0 300,238.0 300,329.0 330,329.0" fill="none" stroke="#3556A4" stroke-width="2.4" stroke-linejoin="round" stroke-linecap="round" marker-end="url(#mk_push)" opacity="1"/><polyline points="262,334.0 300,334.0 300,429.0 330,429.0" fill="none" stroke="#3556A4" stroke-width="2.4" stroke-linejoin="round" stroke-linecap="round" marker-end="url(#mk_push)" opacity="1"/><polyline points="262,430.0 292,430.0 292,329.0 330,329.0" fill="none" stroke="#98A2B3" stroke-width="1.6" stroke-linejoin="round" stroke-linecap="round" stroke-dasharray="6 6" marker-end="url(#mk_api)" opacity="0.9"/><polyline points="262,526.0 292,526.0 292,329.0 330,329.0" fill="none" stroke="#98A2B3" stroke-width="1.6" stroke-linejoin="round" stroke-linecap="round" stroke-dasharray="6 6" marker-end="url(#mk_api)" opacity="0.9"/><polyline points="262,622.0 292,622.0 292,371.0 614,371.0" fill="none" stroke="#98A2B3" stroke-width="1.6" stroke-linejoin="round" stroke-linecap="round" stroke-dasharray="6 6" marker-end="url(#mk_api)" opacity="0.9"/><circle cx="300" cy="232" r="12.5" fill="#3556A4" stroke="#fff" stroke-width="2"/><text x="300" y="236.5" font-family="'JetBrains Mono','SF Mono',ui-monospace,Consolas,monospace" font-size="12.5" fill="#fff" font-weight="800" text-anchor="middle" opacity="1">1</text><polyline points="446.0,258 446.0,292" fill="none" stroke="#3556A4" stroke-width="2" stroke-linejoin="round" stroke-linecap="round" marker-end="url(#mk_push)" opacity="0.85"/><polyline points="446.0,466 446.0,540 450,540 450,566" fill="none" stroke="#3556A4" stroke-width="2.6" stroke-linejoin="round" stroke-linecap="round" marker-end="url(#mk_push)" opacity="1"/><circle cx="450" cy="546" r="12.5" fill="#3556A4" stroke="#fff" stroke-width="2"/><text x="450" y="550.5" font-family="'JetBrains Mono','SF Mono',ui-monospace,Consolas,monospace" font-size="12.5" fill="#fff" font-weight="800" text-anchor="middle" opacity="1">2</text><rect x="516.7" y="517" width="86.6" height="20" rx="6" ry="6" fill="#FFFFFFEE" stroke="#D4DAE3" stroke-width="1" opacity="1"/><text x="560" y="531.5" font-family="'JetBrains Mono','SF Mono',ui-monospace,Consolas,monospace" font-size="10.7" fill="#3556A4" font-weight="600" text-anchor="middle" opacity="1">② events 저장</text><polyline points="660,566 660,512 729.0,512 729.0,402" fill="none" stroke="#3556A4" stroke-width="2.6" stroke-linejoin="round" stroke-linecap="round" marker-end="url(#mk_push)" opacity="1"/><circle cx="660" cy="512" r="12.5" fill="#3556A4" stroke="#fff" stroke-width="2"/><text x="660" y="516.5" font-family="'JetBrains Mono','SF Mono',ui-monospace,Consolas,monospace" font-size="12.5" fill="#fff" font-weight="800" text-anchor="middle" opacity="1">3</text><rect x="688.2" y="489" width="119.6" height="20" rx="6" ry="6" fill="#FFFFFFEE" stroke="#D4DAE3" stroke-width="1" opacity="1"/><text x="748" y="503.5" font-family="'JetBrains Mono','SF Mono',ui-monospace,Consolas,monospace" font-size="10.7" fill="#3556A4" font-weight="600" text-anchor="middle" opacity="1">③ 08:00 경로·구역 매칭</text><polyline points="844,227.0 890,233.0" fill="none" stroke="#3556A4" stroke-width="2.4" stroke-linejoin="round" stroke-linecap="round" marker-end="url(#mk_push)" opacity="1"/><polyline points="844,299.0 868,299.0 868,241.0 890,241.0" fill="none" stroke="#3556A4" stroke-width="2.0" stroke-linejoin="round" stroke-linecap="round" marker-end="url(#mk_push)" opacity="0.9"/><circle cx="868" cy="227" r="12.5" fill="#3556A4" stroke="#fff" stroke-width="2"/><text x="868" y="231.5" font-family="'JetBrains Mono','SF Mono',ui-monospace,Consolas,monospace" font-size="12.5" fill="#fff" font-weight="800" text-anchor="middle" opacity="1">4</text><polyline points="1134,233.0 1200,227.0" fill="none" stroke="#3556A4" stroke-width="2.6" stroke-linejoin="round" stroke-linecap="round" marker-end="url(#mk_push)" opacity="1"/><circle cx="1167" cy="233.0" r="12.5" fill="#3556A4" stroke="#fff" stroke-width="2"/><text x="1167" y="237.5" font-family="'JetBrains Mono','SF Mono',ui-monospace,Consolas,monospace" font-size="12.5" fill="#fff" font-weight="800" text-anchor="middle" opacity="1">5</text><polyline points="1315.0,258 1315.0,288" fill="none" stroke="#E0C200" stroke-width="2.6" stroke-linejoin="round" stroke-linecap="round" marker-end="url(#mk_kakao)" opacity="1"/><polyline points="1315.0,350 1315.0,402" fill="none" stroke="#E0C200" stroke-width="3" stroke-linejoin="round" stroke-linecap="round" marker-end="url(#mk_kakao)" opacity="1"/><circle cx="1315.0" cy="376.0" r="12.5" fill="#FEE500" stroke="#fff" stroke-width="2"/><text x="1315.0" y="380.5" font-family="'JetBrains Mono','SF Mono',ui-monospace,Consolas,monospace" font-size="12.5" fill="#1A1700" font-weight="800" text-anchor="middle" opacity="1">6</text><rect x="1281.6" y="361" width="66.8" height="20" rx="6" ry="6" fill="#FFFFFFEE" stroke="#D4DAE3" stroke-width="1" opacity="1"/><text x="1315" y="375.5" font-family="'JetBrains Mono','SF Mono',ui-monospace,Consolas,monospace" font-size="10.7" fill="#8A7400" font-weight="600" text-anchor="middle" opacity="1">⑥ 알림톡 수신</text><polyline points="1250,402 1250,350" fill="none" stroke="#0E8F82" stroke-width="1.9" stroke-linejoin="round" stroke-linecap="round" stroke-dasharray="6 6" marker-end="url(#mk_pull)" opacity="1"/><polyline points="1200,319.0 1134,321.0" fill="none" stroke="#0E8F82" stroke-width="2" stroke-linejoin="round" stroke-linecap="round" stroke-dasharray="6 6" marker-end="url(#mk_pull)" opacity="1"/><rect x="1024.9" y="289" width="60.199999999999996" height="20" rx="6" ry="6" fill="#FFFFFFEE" stroke="#D4DAE3" stroke-width="1" opacity="1"/><text x="1055" y="303.5" font-family="'JetBrains Mono','SF Mono',ui-monospace,Consolas,monospace" font-size="10.7" fill="#0E8F82" font-weight="600" text-anchor="middle" opacity="1">Ⓐ 스킬 요청</text><polyline points="890,365.0 876,365.0 876,600.0 856,600.0" fill="none" stroke="#0E8F82" stroke-width="2" stroke-linejoin="round" stroke-linecap="round" stroke-dasharray="6 6" marker-end="url(#mk_pull)" opacity="1"/><rect x="841.9" y="459" width="60.199999999999996" height="20" rx="6" ry="6" fill="#FFFFFFEE" stroke="#D4DAE3" stroke-width="1" opacity="1"/><text x="872" y="473.5" font-family="'JetBrains Mono','SF Mono',ui-monospace,Consolas,monospace" font-size="10.7" fill="#0E8F82" font-weight="600" text-anchor="middle" opacity="1">Ⓑ 조회·저장</text><rect x="40" y="792" width="1404" height="82" rx="14" ry="14" fill="#FFFFFF" stroke="#D4DAE3" stroke-width="1.4" opacity="1"/><text x="62" y="822" font-family="'JetBrains Mono','SF Mono',ui-monospace,Consolas,monospace" font-size="13" fill="#1B2130" font-weight="800" text-anchor="start" opacity="1">흐름 범례</text><line x1="170" y1="819" x2="210" y2="819" stroke="#3556A4" stroke-width="3" marker-end="url(#mk_push)"/><text x="222" y="823.5" font-family="'Apple SD Gothic Neo','Malgun Gothic','Noto Sans KR','Segoe UI',system-ui,sans-serif" font-size="12" fill="#1B2130" font-weight="600" text-anchor="start" opacity="1">PUSH · 능동 알림 파이프라인 (①→⑥)</text><line x1="170" y1="848" x2="210" y2="848" stroke="#0E8F82" stroke-width="3" stroke-dasharray="6 5" marker-end="url(#mk_pull)"/><text x="222" y="852.5" font-family="'Apple SD Gothic Neo','Malgun Gothic','Noto Sans KR','Segoe UI',system-ui,sans-serif" font-size="12" fill="#1B2130" font-weight="600" text-anchor="start" opacity="1">PULL · 대화형 스킬 요청 (Ⓐ→Ⓑ)</text><line x1="540" y1="819" x2="580" y2="819" stroke="#98A2B3" stroke-width="3" stroke-dasharray="6 5" marker-end="url(#mk_api)"/><text x="592" y="823.5" font-family="'Apple SD Gothic Neo','Malgun Gothic','Noto Sans KR','Segoe UI',system-ui,sans-serif" font-size="12" fill="#1B2130" font-weight="600" text-anchor="start" opacity="1">외부 API 호출 (AI 추출·지오코딩)</text><line x1="540" y1="848" x2="580" y2="848" stroke="#E0C200" stroke-width="3" marker-end="url(#mk_kakao)"/><text x="592" y="852.5" font-family="'Apple SD Gothic Neo','Malgun Gothic','Noto Sans KR','Segoe UI',system-ui,sans-serif" font-size="12" fill="#1B2130" font-weight="600" text-anchor="start" opacity="1">알림톡 발송 (Kakao Event API)</text><text x="890" y="822" font-family="'JetBrains Mono','SF Mono',ui-monospace,Consolas,monospace" font-size="11.5" fill="#5B6472" font-weight="700" text-anchor="start" opacity="1">일일 능동 알림 순서</text><text x="890" y="848" font-family="'Apple SD Gothic Neo','Malgun Gothic','Noto Sans KR','Segoe UI',system-ui,sans-serif" font-size="10.4" fill="#1B2130" font-weight="500" text-anchor="start" opacity="1">①수집 → ②events 저장 → ③경로·구역 매칭(08:00) → ④발송대상 확정 → ⑤Kakao Event API → ⑥시민 알림톡 수신</text><text x="890" y="864" font-family="'Apple SD Gothic Neo','Malgun Gothic','Noto Sans KR','Segoe UI',system-ui,sans-serif" font-size="10.2" fill="#5B6472" font-weight="400" text-anchor="start" opacity="1">대화형: 시민 → 카카오 스킬 → Routers → 서비스 → SQLite → 응답</text></svg>